<svg xmlns="http://www.w3.org/2000/svg" version="1.1" xmlns:xlink="http://www.w3.org/1999/xlink" xmlns:svgjs="http://svgjs.dev/svgjs" width="1500" height="1682" viewBox="0 0 1500 1682"><g transform="matrix(1,0,0,1,-2.3363984813086063,0)"><svg viewBox="0 0 321 360" data-background-color="#ebe3d6" preserveAspectRatio="xMidYMid meet" height="1682" width="1500" xmlns="http://www.w3.org/2000/svg" xmlns:xlink="http://www.w3.org/1999/xlink"><g id="tight-bounds" transform="matrix(1,0,0,1,0.5000107250000383,0)"><svg viewBox="0 0 320 360" height="360" width="320"><g><svg></svg></g><g><svg viewBox="0 0 320 360" height="360" width="320"><g><path transform="translate(-21.67367,-1.67367) scale(3.63347,3.63347)" d="M87.84 28.16c-3.42-5.92-31.01-21.84-37.84-21.84-6.83 0-34.41 15.92-37.84 21.84-3.19 5.51-3.19 38.18 0 43.69 3.43 5.91 31.01 21.83 37.84 21.83 6.83 0 34.42-15.92 37.84-21.84 3.19-5.51 3.19-38.17 0-43.68zM91.14 26.25c-3.98-6.88-32.88-23.75-41.14-23.75-8.26 0-37.16 16.87-41.14 23.75-3.86 6.66-3.86 40.84 0 47.5 3.98 6.88 32.88 23.75 41.14 23.75 8.26 0 37.16-16.87 41.14-23.74 3.86-6.67 3.86-40.85 0-47.51zM88.78 72.39c-3.51 6.07-31.78 22.38-38.78 22.38-7 0-35.27-16.32-38.78-22.39-3.27-5.65-3.27-39.13 0-44.78 3.51-6.06 31.78-22.37 38.78-22.37 7 0 35.27 16.32 38.78 22.38 3.27 5.65 3.27 39.13 0 44.78z" fill="#505050" fill-rule="nonzero" stroke="none" stroke-width="1" stroke-linecap="butt" stroke-linejoin="miter" stroke-miterlimit="10" stroke-dasharray="" stroke-dashoffset="0" font-family="none" font-weight="none" font-size="none" text-anchor="none" style="mix-blend-mode: normal" data-fill-palette-color="tertiary"></path></g><g transform="matrix(1,0,0,1,68.24891482049894,90)"><svg viewBox="0 0 183.50217035900212 180" height="180" width="183.50217035900212"><g><svg viewBox="0 0 223.99999999999997 219.72492162418723" height="180" width="183.50217035900212"><g transform="matrix(1,0,0,1,0,149.4039701457214)"><svg viewBox="0 0 223.99999999999997 70.32095147846584" height="70.32095147846584" width="223.99999999999997"><g id="textblocktransform"><svg viewBox="0 0 223.99999999999997 70.32095147846584" height="70.32095147846584" width="223.99999999999997" id="textblock"><g><svg viewBox="0 0 223.99999999999997 46.79318734793187" height="46.79318734793187" width="223.99999999999997"><g transform="matrix(1,0,0,1,0,0)"><svg width="223.99999999999997" viewBox="3.8 -29.7 143.82999999999998 30.05" height="46.79318734793187" data-palette-color="#ebe3d6"><path d="M4.6 0L3.8 0 3.8-29.55 4.9-29.55 17.1-1.45 17.1-29.55 17.9-29.55 17.9 0 16.85 0 4.6-28.25 4.6 0ZM29.7 0.2L29.7 0.2Q28.55 0.2 27.32-0.2 26.1-0.6 25.25-1.83 24.4-3.05 24.4-5.6L24.4-5.6 24.4-7.3Q24.4-8.9 25.12-10.1 25.85-11.3 26.87-12.13 27.9-12.95 28.87-13.48 29.85-14 30.3-14.25L30.3-14.25Q32.3-15.35 33.42-16.18 34.55-17 35.05-17.88 35.55-18.75 35.55-20L35.55-20 35.55-20.7Q35.55-22.4 34.82-23.15 34.1-23.9 33-24.1 31.9-24.3 30.75-24.3L30.75-24.3Q28.55-24.3 27.47-23.55 26.4-22.8 26.07-21.55 25.75-20.3 25.75-18.75L25.75-18.75 25.75-16.7 24.95-16.7 24.95-18.85Q24.95-21.75 26.1-23.43 27.25-25.1 30.75-25.1L30.75-25.1Q33.45-25.1 34.62-24.4 35.8-23.7 36.07-22.58 36.35-21.45 36.35-20.1L36.35-20.1 36.35 0 35.6 0 35.6-3.65Q35-1.9 33.47-0.85 31.95 0.2 29.7 0.2ZM29.85-0.6L29.85-0.6Q32.05-0.6 33.27-1.55 34.5-2.5 35.02-4.15 35.55-5.8 35.55-7.85L35.55-7.85 35.55-17.05Q34.75-15.95 33.37-15.13 32-14.3 30.55-13.45L30.55-13.45Q29.3-12.75 28.07-11.98 26.85-11.2 26.02-10 25.2-8.8 25.2-6.9L25.2-6.9 25.2-5.6Q25.2-3.25 25.95-2.2 26.7-1.15 27.8-0.88 28.9-0.6 29.85-0.6ZM46.45 0L46.45 0Q44.5 0 43.65-1.18 42.8-2.35 42.8-4.65L42.8-4.65 42.8-23.95 40.9-23.95 40.9-24.65 42.8-24.75 42.95-29.6 43.6-29.6 43.6-24.75 49.4-24.75 49.4-23.95 43.6-23.95 43.6-4.4Q43.6-3 44.15-1.88 44.7-0.75 46.4-0.75L46.4-0.75Q47.1-0.75 47.8-0.83 48.5-0.9 49.4-1L49.4-1 49.4-0.2Q49.05-0.15 48.22-0.08 47.4 0 46.45 0ZM54.19 0L53.39 0 53.39-24.75 54.19-24.75 54.19 0ZM53.79-28.3L53.79-28.3Q53.09-28.3 53.09-29L53.09-29Q53.09-29.7 53.79-29.7L53.79-29.7Q54.49-29.7 54.49-29L54.49-29Q54.49-28.3 53.79-28.3ZM66.54 0.35L66.54 0.35Q64.39 0.35 63.17-0.23 61.94-0.8 61.39-1.75 60.84-2.7 60.69-3.88 60.54-5.05 60.54-6.2L60.54-6.2 60.54-18.6Q60.54-19.75 60.69-20.9 60.84-22.05 61.42-23.03 61.99-24 63.24-24.58 64.49-25.15 66.74-25.15L66.74-25.15Q69.49-25.15 70.74-24.15 71.99-23.15 72.37-21.65 72.74-20.15 72.74-18.6L72.74-18.6 72.74-6.2Q72.74-4.65 72.37-3.15 71.99-1.65 70.69-0.65 69.39 0.35 66.54 0.35ZM66.54-0.45L66.54-0.45Q69.14-0.45 70.27-1.38 71.39-2.3 71.67-3.68 71.94-5.05 71.94-6.35L71.94-6.35 71.94-18.45Q71.94-19.8 71.67-21.15 71.39-22.5 70.32-23.43 69.24-24.35 66.74-24.35L66.74-24.35Q64.74-24.35 63.62-23.8 62.49-23.25 62.02-22.38 61.54-21.5 61.44-20.48 61.34-19.45 61.34-18.45L61.34-18.45 61.34-6.35Q61.34-5.35 61.44-4.33 61.54-3.3 61.99-2.43 62.44-1.55 63.52-1 64.59-0.45 66.54-0.45ZM79.89 0L79.09 0 79.09-24.75 79.79-24.75 79.89-22.15Q80.44-23.3 81.71-24.23 82.99-25.15 85.34-25.15L85.34-25.15Q87.44-25.15 88.66-24.58 89.89-24 90.44-23.03 90.99-22.05 91.14-20.9 91.29-19.75 91.29-18.6L91.29-18.6 91.29 0 90.49 0 90.49-18.15Q90.49-19.65 90.24-21.08 89.99-22.5 88.91-23.43 87.84-24.35 85.34-24.35L85.34-24.35Q82.59-24.35 81.24-22.85 79.89-21.35 79.89-19.2L79.89-19.2 79.89 0ZM98.94 0L98.14 0 98.14-29.55 99.24-29.55 111.44-1.45 111.44-29.55 112.24-29.55 112.24 0 111.19 0 98.94-28.25 98.94 0ZM124.03 0.2L124.03 0.2Q122.88 0.2 121.66-0.2 120.43-0.6 119.58-1.83 118.73-3.05 118.73-5.6L118.73-5.6 118.73-7.3Q118.73-8.9 119.46-10.1 120.18-11.3 121.21-12.13 122.23-12.95 123.21-13.48 124.18-14 124.63-14.25L124.63-14.25Q126.63-15.35 127.76-16.18 128.88-17 129.38-17.88 129.88-18.75 129.88-20L129.88-20 129.88-20.7Q129.88-22.4 129.16-23.15 128.43-23.9 127.33-24.1 126.23-24.3 125.08-24.3L125.08-24.3Q122.88-24.3 121.81-23.55 120.73-22.8 120.41-21.55 120.08-20.3 120.08-18.75L120.08-18.75 120.08-16.7 119.28-16.7 119.28-18.85Q119.28-21.75 120.43-23.43 121.58-25.1 125.08-25.1L125.08-25.1Q127.78-25.1 128.96-24.4 130.13-23.7 130.41-22.58 130.68-21.45 130.68-20.1L130.68-20.1 130.68 0 129.93 0 129.93-3.65Q129.33-1.9 127.81-0.85 126.28 0.2 124.03 0.2ZM124.18-0.6L124.18-0.6Q126.38-0.6 127.61-1.55 128.83-2.5 129.36-4.15 129.88-5.8 129.88-7.85L129.88-7.85 129.88-17.05Q129.08-15.95 127.71-15.13 126.33-14.3 124.88-13.45L124.88-13.45Q123.63-12.75 122.41-11.98 121.18-11.2 120.36-10 119.53-8.8 119.53-6.9L119.53-6.9 119.53-5.6Q119.53-3.25 120.28-2.2 121.03-1.15 122.13-0.88 123.23-0.6 124.18-0.6ZM141.58 0L140.68 0 134.68-24.75 135.48-24.75 141.13-1.35 146.83-24.75 147.63-24.75 141.58 0Z" opacity="1" transform="matrix(1,0,0,1,0,0)" fill="#ebe3d6" class="wordmark-text-0" data-fill-palette-color="quaternary" id="text-0"></path></svg></g></svg></g><g transform="matrix(1,0,0,1,0,57.83993584428224)"><svg viewBox="0 0 223.99999999999997 12.48101563418361" height="12.48101563418361" width="223.99999999999997"><g transform="matrix(1,0,0,1,0,0)"><svg width="223.99999999999997" viewBox="0.75 -36.25 850.7 47.4" height="12.48101563418361" data-palette-color="#ebe3d6"><path d="M23.15-16.3L26.35-33.7 31.9-32.8 25.7 0.05 21.25 0.05 13.2-17.15Q12.5-18.55 11.75-20.38 11-22.2 10.35-23.8L10.35-23.8Q10.2-22.2 10-20.43 9.8-18.65 9.5-17.05L9.5-17.05 6.3 0.2 0.75-0.7 6.95-33.45 11.45-33.45 19.3-16.45Q20-15 20.78-13.13 21.55-11.25 22.25-9.65L22.25-9.65Q22.45-11.4 22.68-13.2 22.9-15 23.15-16.3L23.15-16.3ZM40.9-3.7Q42.15-3.7 43.4-5.1 44.65-6.5 45.7-8.53 46.75-10.55 47.53-12.88 48.3-15.2 48.7-17.1L48.7-17.1 49.4-20.55Q48.8-20.85 48.03-20.95 47.25-21.05 46.55-21.05L46.55-21.05Q44.3-21.05 42.73-19.78 41.15-18.5 40.18-16.53 39.2-14.55 38.78-12.18 38.35-9.8 38.35-7.65L38.35-7.65Q38.35-5.45 38.98-4.58 39.6-3.7 40.9-3.7L40.9-3.7ZM39.05 0.4Q37.25 0.4 36-0.3 34.75-1 33.95-2.18 33.15-3.35 32.78-4.83 32.4-6.3 32.4-7.85L32.4-7.85Q32.4-11.4 33.33-14.5 34.25-17.6 36.05-19.93 37.85-22.25 40.45-23.58 43.05-24.9 46.45-24.9L46.45-24.9Q47.3-24.9 48.85-24.73 50.4-24.55 52.4-23.7L52.4-23.7 55.55-23.5 53.3-11.85Q52.8-9.2 52.8-7.2L52.8-7.2Q52.8-4.75 53.43-3.43 54.05-2.1 54.6-1.3L54.6-1.3 50.1 0.5Q49.35-0.35 48.88-1.6 48.4-2.85 48.4-4.45L48.4-4.45Q48.4-5.1 48.5-6.13 48.6-7.15 48.75-8.45L48.75-8.45 47.9-6.45Q47.05-4.5 46.05-3.18 45.05-1.85 43.93-1.05 42.8-0.25 41.58 0.08 40.35 0.4 39.05 0.4L39.05 0.4ZM76.55-23.65L81.35-24.85Q81.9-23.75 82.1-22.38 82.3-21 82.3-19.8L82.3-19.8Q82.3-17.4 81.8-14.95 81.3-12.5 80.38-10.23 79.45-7.95 78.13-6 76.8-4.05 75.15-2.65L75.15-2.65Q73.25-1.05 71.18-0.33 69.1 0.4 66 0.4L66 0.4Q62.85 0.4 61.2-0.98 59.55-2.35 59.55-5.3L59.55-5.3Q59.55-5.65 59.6-6.23 59.65-6.8 59.73-7.4 59.8-8 59.88-8.55 59.95-9.1 60-9.45L60-9.45 62.9-24.5 68.35-24.5 65.5-9.6Q65.45-9.35 65.4-8.93 65.35-8.5 65.3-8.05 65.25-7.6 65.2-7.2 65.15-6.8 65.15-6.6L65.15-6.6Q65.15-5.2 65.85-4.35 66.55-3.5 67.9-3.5L67.9-3.5Q69.6-3.5 71.23-5.15 72.85-6.8 74.1-9.28 75.35-11.75 76.1-14.68 76.85-17.6 76.85-20.15L76.85-20.15Q76.85-20.8 76.78-21.95 76.7-23.1 76.55-23.65L76.55-23.65ZM93.6-36.05Q95.2-36.05 95.95-35.18 96.7-34.3 96.7-32.8L96.7-32.8Q96.7-31.35 95.7-30.23 94.7-29.1 93-29.1L93-29.1Q91.4-29.1 90.65-30 89.9-30.9 89.9-32.25L89.9-32.25Q89.9-33.8 90.88-34.93 91.85-36.05 93.6-36.05L93.6-36.05ZM89.95 0.25Q87.7 0.25 86.5-0.9 85.3-2.05 85.3-3.95L85.3-3.95Q85.3-4.65 85.45-5.4L85.45-5.4 89.25-24.5 94.75-24.5 91.15-5.9Q91.1-5.65 91.08-5.48 91.05-5.3 91.05-5.1L91.05-5.1Q91.05-3.85 91.9-3.85L91.9-3.85Q92.75-3.85 93.55-4.03 94.35-4.2 94.45-4.25L94.45-4.25 94.45-0.65Q93.9-0.4 93.2-0.2L93.2-0.2Q92.6 0 91.78 0.13 90.95 0.25 89.95 0.25L89.95 0.25ZM118.9-23.7L121.8-23.5Q121.55-22.3 121.08-20.08 120.6-17.85 120.15-15.4 119.7-12.95 119.38-10.73 119.05-8.5 119.05-7.3L119.05-7.3Q119.05-6.05 119.18-4.98 119.3-3.9 119.45-2.88 119.6-1.85 119.73-0.83 119.85 0.2 119.85 1.35L119.85 1.35Q119.85 4.1 119.1 5.98 118.35 7.85 116.98 8.97 115.6 10.1 113.63 10.6 111.65 11.1 109.25 11.1L109.25 11.1Q107.8 11.1 106.35 10.78 104.9 10.45 103.55 10 102.2 9.55 101.03 9.03 99.85 8.5 99 8.1L99 8.1 100.95 3.9Q101.9 4.3 103 4.78 104.1 5.25 105.25 5.65 106.4 6.05 107.6 6.33 108.8 6.6 109.95 6.6L109.95 6.6Q112.3 6.6 113.6 5.1 114.9 3.6 114.9 1.45L114.9 1.45Q114.9 1 114.88 0.48 114.85-0.05 114.8-0.73 114.75-1.4 114.73-2.3 114.7-3.2 114.7-4.5L114.7-4.5Q114.7-5.3 114.85-6.35 115-7.4 115.1-8.55L115.1-8.55 114.15-6.45Q113.3-4.5 112.3-3.18 111.3-1.85 110.2-1.05 109.1-0.25 107.88 0.08 106.65 0.4 105.35 0.4L105.35 0.4Q103.55 0.4 102.3-0.3 101.05-1 100.25-2.18 99.45-3.35 99.08-4.83 98.7-6.3 98.7-7.85L98.7-7.85Q98.7-11.4 99.63-14.5 100.55-17.6 102.35-19.93 104.15-22.25 106.75-23.58 109.35-24.9 112.75-24.9L112.75-24.9Q114.5-24.9 116.1-24.53 117.7-24.15 118.9-23.7L118.9-23.7ZM107.15-3.7Q108.4-3.7 109.7-5.13 111-6.55 112.13-8.85 113.25-11.15 114.15-14 115.05-16.85 115.55-19.7L115.55-19.7 115.7-20.55Q114.95-20.8 114.18-20.93 113.4-21.05 112.85-21.05L112.85-21.05Q110.6-21.05 109.03-19.78 107.45-18.5 106.48-16.53 105.5-14.55 105.08-12.18 104.65-9.8 104.65-7.65L104.65-7.65Q104.65-5.45 105.28-4.58 105.9-3.7 107.15-3.7L107.15-3.7ZM133.1-3.7Q134.35-3.7 135.6-5.1 136.85-6.5 137.9-8.53 138.95-10.55 139.73-12.88 140.5-15.2 140.9-17.1L140.9-17.1 141.6-20.55Q141-20.85 140.23-20.95 139.45-21.05 138.75-21.05L138.75-21.05Q136.5-21.05 134.93-19.78 133.35-18.5 132.38-16.53 131.4-14.55 130.98-12.18 130.55-9.8 130.55-7.65L130.55-7.65Q130.55-5.45 131.18-4.58 131.8-3.7 133.1-3.7L133.1-3.7ZM131.25 0.4Q129.45 0.4 128.2-0.3 126.95-1 126.15-2.18 125.35-3.35 124.98-4.83 124.6-6.3 124.6-7.85L124.6-7.85Q124.6-11.4 125.53-14.5 126.45-17.6 128.25-19.93 130.05-22.25 132.65-23.58 135.25-24.9 138.65-24.9L138.65-24.9Q139.5-24.9 141.05-24.73 142.6-24.55 144.6-23.7L144.6-23.7 147.75-23.5 145.5-11.85Q145-9.2 145-7.2L145-7.2Q145-4.75 145.63-3.43 146.25-2.1 146.8-1.3L146.8-1.3 142.3 0.5Q141.55-0.35 141.08-1.6 140.6-2.85 140.6-4.45L140.6-4.45Q140.6-5.1 140.7-6.13 140.8-7.15 140.95-8.45L140.95-8.45 140.1-6.45Q139.25-4.5 138.25-3.18 137.25-1.85 136.13-1.05 135-0.25 133.78 0.08 132.55 0.4 131.25 0.4L131.25 0.4ZM151.5-20.45L151.5-24.5 156.5-24.5 158.7-30.75 163.45-31.8 162-24.5 167.6-24.5 166.9-20.45 161.2-20.45 158.4-5.7Q158.35-5.45 158.33-5.28 158.3-5.1 158.3-4.95L158.3-4.95Q158.3-4.25 158.7-3.98 159.1-3.7 160.2-3.7L160.2-3.7Q160.9-3.7 161.63-3.83 162.35-3.95 163-4.1L163-4.1Q163.75-4.3 164.45-4.55L164.45-4.55 164.45-0.8Q163.6-0.45 162.6-0.2L162.6-0.2Q161.75 0.05 160.58 0.23 159.4 0.4 158.1 0.4L158.1 0.4Q155.1 0.4 153.83-0.68 152.55-1.75 152.55-3.8L152.55-3.8Q152.55-4.45 152.7-5.2L152.7-5.2 155.75-20.45 151.5-20.45ZM177.2-36.05Q178.8-36.05 179.55-35.18 180.3-34.3 180.3-32.8L180.3-32.8Q180.3-31.35 179.3-30.23 178.3-29.1 176.6-29.1L176.6-29.1Q175-29.1 174.25-30 173.5-30.9 173.5-32.25L173.5-32.25Q173.5-33.8 174.48-34.93 175.45-36.05 177.2-36.05L177.2-36.05ZM173.55 0.25Q171.3 0.25 170.1-0.9 168.9-2.05 168.9-3.95L168.9-3.95Q168.9-4.65 169.05-5.4L169.05-5.4 172.85-24.5 178.35-24.5 174.75-5.9Q174.7-5.65 174.68-5.48 174.65-5.3 174.65-5.1L174.65-5.1Q174.65-3.85 175.5-3.85L175.5-3.85Q176.35-3.85 177.15-4.03 177.95-4.2 178.05-4.25L178.05-4.25 178.05-0.65Q177.5-0.4 176.8-0.2L176.8-0.2Q176.2 0 175.38 0.13 174.55 0.25 173.55 0.25L173.55 0.25ZM206.35-18.8Q206.35-16.85 205.85-14.95 205.35-13.05 204.73-11.3 204.1-9.55 203.6-7.93 203.1-6.3 203.1-4.8L203.1-4.8Q203.1-3.8 203.18-2.48 203.25-1.15 203.5 0L203.5 0 197.95 0Q197.8-0.85 197.78-1.58 197.75-2.3 197.75-3L197.75-3Q197.75-4.95 198.2-6.85 198.65-8.75 199.2-10.6 199.75-12.45 200.2-14.18 200.65-15.9 200.65-17.55L200.65-17.55Q200.65-18.75 200.08-19.58 199.5-20.4 197.95-20.4L197.95-20.4Q196.6-20.4 195.3-19.23 194-18.05 192.88-16.23 191.75-14.4 190.93-12.2 190.1-10 189.7-7.95L189.7-7.95 188.15 0 182.55 0 185.1-12.6Q185.4-14.05 185.53-15.3 185.65-16.55 185.65-17.55L185.65-17.55Q185.65-20.3 185.15-21.55 184.65-22.8 184.4-23.2L184.4-23.2 188.95-25Q189.5-24.3 189.88-23.3 190.25-22.3 190.25-20.75L190.25-20.75Q190.25-20.2 190.23-19.93 190.2-19.65 190.18-19.25 190.15-18.85 190.05-18.13 189.95-17.4 189.8-16.05L189.8-16.05 190.65-18.05Q192.15-21.5 194.58-23.2 197-24.9 200-24.9L200-24.9Q203.3-24.9 204.83-23.25 206.35-21.6 206.35-18.8L206.35-18.8ZM230.05-23.7L232.95-23.5Q232.7-22.3 232.23-20.08 231.75-17.85 231.3-15.4 230.85-12.95 230.53-10.73 230.2-8.5 230.2-7.3L230.2-7.3Q230.2-6.05 230.33-4.98 230.45-3.9 230.6-2.88 230.75-1.85 230.88-0.83 231 0.2 231 1.35L231 1.35Q231 4.1 230.25 5.98 229.5 7.85 228.13 8.97 226.75 10.1 224.78 10.6 222.8 11.1 220.4 11.1L220.4 11.1Q218.95 11.1 217.5 10.78 216.05 10.45 214.7 10 213.35 9.55 212.18 9.03 211 8.5 210.15 8.1L210.15 8.1 212.1 3.9Q213.05 4.3 214.15 4.78 215.25 5.25 216.4 5.65 217.55 6.05 218.75 6.33 219.95 6.6 221.1 6.6L221.1 6.6Q223.45 6.6 224.75 5.1 226.05 3.6 226.05 1.45L226.05 1.45Q226.05 1 226.03 0.48 226-0.05 225.95-0.73 225.9-1.4 225.88-2.3 225.85-3.2 225.85-4.5L225.85-4.5Q225.85-5.3 226-6.35 226.15-7.4 226.25-8.55L226.25-8.55 225.3-6.45Q224.45-4.5 223.45-3.18 222.45-1.85 221.35-1.05 220.25-0.25 219.03 0.08 217.8 0.4 216.5 0.4L216.5 0.4Q214.7 0.4 213.45-0.3 212.2-1 211.4-2.18 210.6-3.35 210.23-4.83 209.85-6.3 209.85-7.85L209.85-7.85Q209.85-11.4 210.78-14.5 211.7-17.6 213.5-19.93 215.3-22.25 217.9-23.58 220.5-24.9 223.9-24.9L223.9-24.9Q225.65-24.9 227.25-24.53 228.85-24.15 230.05-23.7L230.05-23.7ZM218.3-3.7Q219.55-3.7 220.85-5.13 222.15-6.55 223.28-8.85 224.4-11.15 225.3-14 226.2-16.85 226.7-19.7L226.7-19.7 226.85-20.55Q226.1-20.8 225.33-20.93 224.55-21.05 224-21.05L224-21.05Q221.75-21.05 220.18-19.78 218.6-18.5 217.63-16.53 216.65-14.55 216.23-12.18 215.8-9.8 215.8-7.65L215.8-7.65Q215.8-5.45 216.43-4.58 217.05-3.7 218.3-3.7L218.3-3.7ZM248.25-20.45L248.25-24.5 253.25-24.5 255.45-30.75 260.2-31.8 258.75-24.5 264.35-24.5 263.65-20.45 257.95-20.45 255.15-5.7Q255.1-5.45 255.08-5.28 255.05-5.1 255.05-4.95L255.05-4.95Q255.05-4.25 255.45-3.98 255.85-3.7 256.95-3.7L256.95-3.7Q257.65-3.7 258.38-3.83 259.1-3.95 259.75-4.1L259.75-4.1Q260.5-4.3 261.2-4.55L261.2-4.55 261.2-0.8Q260.35-0.45 259.35-0.2L259.35-0.2Q258.5 0.05 257.33 0.23 256.15 0.4 254.85 0.4L254.85 0.4Q251.85 0.4 250.58-0.68 249.3-1.75 249.3-3.8L249.3-3.8Q249.3-4.45 249.45-5.2L249.45-5.2 252.5-20.45 248.25-20.45ZM277.7-36.25L276.15-27.9Q275.85-26.4 275.48-24.9 275.1-23.4 274.68-22.1 274.25-20.8 273.88-19.73 273.5-18.65 273.3-18.05L273.3-18.05Q274.75-21.5 277.18-23.2 279.6-24.9 282.6-24.9L282.6-24.9Q285.9-24.9 287.43-23.25 288.95-21.6 288.95-18.8L288.95-18.8Q288.95-16.85 288.45-14.95 287.95-13.05 287.33-11.3 286.7-9.55 286.2-7.93 285.7-6.3 285.7-4.8L285.7-4.8Q285.7-3.8 285.78-2.48 285.85-1.15 286.1 0L286.1 0 280.55 0Q280.4-0.85 280.38-1.53 280.35-2.2 280.35-3L280.35-3Q280.35-4.95 280.8-6.85 281.25-8.75 281.8-10.6 282.35-12.45 282.8-14.18 283.25-15.9 283.25-17.55L283.25-17.55Q283.25-18.75 282.68-19.58 282.1-20.4 280.55-20.4L280.55-20.4Q279.2-20.4 277.9-19.23 276.6-18.05 275.48-16.23 274.35-14.4 273.53-12.2 272.7-10 272.3-8L272.3-8 270.75 0 265.15 0 272.05-35.25 277.7-36.25ZM292.45-7.8Q292.45-11.35 293.38-14.5 294.3-17.65 296.08-20 297.85-22.35 300.45-23.73 303.05-25.1 306.4-25.1L306.4-25.1Q310.3-25.1 311.95-23.65 313.6-22.2 313.6-19.7L313.6-19.7Q313.6-17.5 312.48-15.7 311.35-13.9 309.33-12.55 307.3-11.2 304.5-10.38 301.7-9.55 298.35-9.4L298.35-9.4Q298.3-8.95 298.3-8.5 298.3-8.05 298.3-7.65L298.3-7.65Q298.3-5.3 299.3-4.4 300.3-3.5 301.95-3.5L301.95-3.5Q302.95-3.5 304.23-3.8 305.5-4.1 306.7-4.5L306.7-4.5Q308.05-4.95 309.55-5.55L309.55-5.55 310.7-1.95Q309.2-1.25 307.55-0.7L307.55-0.7Q306.15-0.2 304.38 0.18 302.6 0.55 300.8 0.55L300.8 0.55Q298.45 0.55 296.85-0.15 295.25-0.85 294.28-2.02 293.3-3.2 292.88-4.7 292.45-6.2 292.45-7.8L292.45-7.8ZM305.25-21.25Q304.1-21.25 303.1-20.58 302.1-19.9 301.33-18.75 300.55-17.6 299.95-16.1 299.35-14.6 298.95-13L298.95-13Q301.2-13.15 302.88-13.73 304.55-14.3 305.68-15.15 306.8-16 307.38-16.95 307.95-17.9 307.95-18.8L307.95-18.8Q307.95-19.95 307.33-20.6 306.7-21.25 305.25-21.25L305.25-21.25ZM348.3 0L346.55-18.3Q346.45-19.55 346.38-21.1 346.3-22.65 346.25-24.25L346.25-24.25Q345.7-22.65 345.1-21.13 344.5-19.6 343.95-18.5L343.95-18.5 334.9 0 330.3 0 327.1-33.45 333.25-33.45 334.5-14.95Q334.6-13.95 334.63-12.2 334.65-10.45 334.65-8.7L334.65-8.7Q335.1-10.05 335.73-11.58 336.35-13.1 337.25-14.95L337.25-14.95 345.9-33.45 351-33.45 352.5-15Q352.6-13.35 352.65-11.8 352.7-10.25 352.7-8.9L352.7-8.9Q353.3-10.35 353.93-11.93 354.55-13.5 355.25-15L355.25-15 364.05-33.85 369.8-32.5 352.9 0 348.3 0ZM379.25-25.1Q381.65-25.1 383.25-24.4 384.85-23.7 385.82-22.53 386.8-21.35 387.2-19.85 387.6-18.35 387.6-16.75L387.6-16.75Q387.6-13.15 386.68-10 385.75-6.85 384-4.5 382.25-2.15 379.63-0.8 377 0.55 373.65 0.55L373.65 0.55Q371.3 0.55 369.7-0.15 368.1-0.85 367.13-2.02 366.15-3.2 365.73-4.7 365.3-6.2 365.3-7.8L365.3-7.8Q365.3-11.35 366.23-14.5 367.15-17.65 368.93-20 370.7-22.35 373.3-23.73 375.9-25.1 379.25-25.1L379.25-25.1ZM378.1-21.25Q376.45-21.25 375.18-19.88 373.9-18.5 373.03-16.43 372.15-14.35 371.7-11.95 371.25-9.55 371.25-7.45L371.25-7.45Q371.25-5.1 372.2-4.2 373.15-3.3 374.8-3.3L374.8-3.3Q376.45-3.3 377.73-4.67 379-6.05 379.88-8.13 380.75-10.2 381.2-12.63 381.65-15.05 381.65-17.1L381.65-17.1Q381.65-19.45 380.7-20.35 379.75-21.25 378.1-21.25L378.1-21.25ZM409.75-22.9L406.85-18.25Q406.2-18.95 405.5-19.4 404.8-19.85 403.65-19.85L403.65-19.85Q402.95-19.85 402.28-19.2 401.6-18.55 400.98-17.48 400.35-16.4 399.8-15.03 399.25-13.65 398.85-12.25L398.85-12.25 396.45 0 390.85 0 393.4-12.6Q393.7-14.05 393.83-15.3 393.95-16.55 393.95-17.55L393.95-17.55Q393.95-20.3 393.45-21.55 392.95-22.8 392.7-23.2L392.7-23.2 397.25-25Q397.8-24.3 398.18-23.3 398.55-22.3 398.55-20.75L398.55-20.75Q398.55-19.7 398.38-18.43 398.2-17.15 398.1-16L398.1-16Q399.15-20.55 400.85-22.75 402.55-24.95 405.35-24.95L405.35-24.95Q407.05-24.95 408.1-24.38 409.15-23.8 409.75-22.9L409.75-22.9ZM419.4-4.25L419.4-0.65Q418.75-0.4 417.95-0.2L417.95-0.2Q417.25 0 416.27 0.13 415.3 0.25 414.15 0.25L414.15 0.25Q411.8 0.25 410.65-0.9 409.5-2.05 409.5-3.95L409.5-3.95Q409.5-4.65 409.65-5.35L409.65-5.35 415.5-35.25 421.15-36.25 415.35-5.9Q415.3-5.65 415.27-5.48 415.25-5.3 415.25-5.1L415.25-5.1Q415.25-3.85 416.6-3.85L416.6-3.85Q417.65-3.85 418.48-4.03 419.3-4.2 419.4-4.25L419.4-4.25ZM448.25-36.25L443.55-11.9Q443.3-10.5 443.17-9.33 443.05-8.15 443.05-7.2L443.05-7.2Q443.05-4.75 443.67-3.43 444.3-2.1 444.85-1.3L444.85-1.3 440.35 0.5Q439.6-0.35 439.13-1.6 438.65-2.85 438.65-4.45L438.65-4.45Q438.65-5.1 438.75-6.13 438.85-7.15 439-8.45L439-8.45 438.15-6.45Q437.3-4.5 436.3-3.18 435.3-1.85 434.17-1.05 433.05-0.25 431.82 0.08 430.6 0.4 429.3 0.4L429.3 0.4Q427.5 0.4 426.25-0.3 425-1 424.2-2.18 423.4-3.35 423.02-4.83 422.65-6.3 422.65-7.85L422.65-7.85Q422.65-11.4 423.57-14.5 424.5-17.6 426.3-19.93 428.1-22.25 430.7-23.58 433.3-24.9 436.7-24.9L436.7-24.9Q437.35-24.9 438.27-24.83 439.2-24.75 440.5-24.45L440.5-24.45 442.6-35.25 448.25-36.25ZM431.15-3.7Q432.4-3.7 433.65-5.1 434.9-6.5 435.95-8.53 437-10.55 437.77-12.88 438.55-15.2 438.95-17.1L438.95-17.1 439.65-20.55Q439.05-20.85 438.27-20.95 437.5-21.05 436.8-21.05L436.8-21.05Q434.55-21.05 432.97-19.78 431.4-18.5 430.42-16.53 429.45-14.55 429.02-12.18 428.6-9.8 428.6-7.65L428.6-7.65Q428.6-5.45 429.22-4.58 429.85-3.7 431.15-3.7L431.15-3.7ZM468-36.05Q469.6-36.05 470.35-35.18 471.1-34.3 471.1-32.8L471.1-32.8Q471.1-31.35 470.1-30.23 469.1-29.1 467.4-29.1L467.4-29.1Q465.8-29.1 465.05-30 464.3-30.9 464.3-32.25L464.3-32.25Q464.3-33.8 465.27-34.93 466.25-36.05 468-36.05L468-36.05ZM464.35 0.25Q462.1 0.25 460.9-0.9 459.7-2.05 459.7-3.95L459.7-3.95Q459.7-4.65 459.85-5.4L459.85-5.4 463.65-24.5 469.15-24.5 465.55-5.9Q465.5-5.65 465.47-5.48 465.45-5.3 465.45-5.1L465.45-5.1Q465.45-3.85 466.3-3.85L466.3-3.85Q467.15-3.85 467.95-4.03 468.75-4.2 468.85-4.25L468.85-4.25 468.85-0.65Q468.3-0.4 467.6-0.2L467.6-0.2Q467 0 466.18 0.13 465.35 0.25 464.35 0.25L464.35 0.25ZM484.45-25.1L484.45-25.1Q486-25.1 487.15-24.73 488.3-24.35 489.1-23.7 489.9-23.05 490.37-22.18 490.85-21.3 491.05-20.35L491.05-20.35 486.9-18.7Q486.7-19.15 486.55-19.63 486.4-20.1 486.1-20.48 485.8-20.85 485.32-21.08 484.85-21.3 484.05-21.3L484.05-21.3Q482.35-21.3 481.62-20.35 480.9-19.4 480.9-18.4L480.9-18.4Q480.9-17.7 481.17-17.15 481.45-16.6 481.85-16.15 482.25-15.7 482.72-15.35 483.2-15 483.6-14.8L483.6-14.8 485.05-14Q485.85-13.55 486.62-13.03 487.4-12.5 487.95-11.75 488.5-11 488.85-9.93 489.2-8.85 489.2-7.3L489.2-7.3Q489.2-5.7 488.57-4.28 487.95-2.85 486.75-1.78 485.55-0.7 483.75-0.08 481.95 0.55 479.55 0.55L479.55 0.55Q477.95 0.55 476.47 0.18 475-0.2 473.85-0.65L473.85-0.65Q472.55-1.2 471.35-1.85L471.35-1.85 473.55-5.8Q474.6-5.15 475.7-4.65L475.7-4.65Q476.6-4.2 477.67-3.85 478.75-3.5 479.7-3.5L479.7-3.5Q481.6-3.5 482.52-4.35 483.45-5.2 483.45-6.35L483.45-6.35Q483.45-8.05 482.52-8.93 481.6-9.8 480.4-10.45L480.4-10.45 479.15-11.1Q478.55-11.4 477.85-11.85 477.15-12.3 476.52-13.03 475.9-13.75 475.5-14.85 475.1-15.95 475.1-17.55L475.1-17.55Q475.1-19.15 475.7-20.53 476.3-21.9 477.47-22.93 478.65-23.95 480.4-24.53 482.15-25.1 484.45-25.1ZM508.95-24.5L514.4-24.5 509.8-1.25Q509.25 1.45 508.25 3.35 507.25 5.25 505.85 6.63 504.45 8 502.67 9.05 500.9 10.1 498.8 11.15L498.8 11.15 496.85 7.35Q498.5 6.6 499.72 5.85 500.95 5.1 501.85 4.2 502.75 3.3 503.35 2.13 503.95 0.95 504.25-0.65L504.25-0.65 508.95-24.5ZM513.45-36.05Q515.05-36.05 515.8-35.18 516.55-34.3 516.55-32.8L516.55-32.8Q516.55-31.35 515.57-30.23 514.6-29.1 512.85-29.1L512.85-29.1Q511.25-29.1 510.52-30 509.8-30.9 509.8-32.25L509.8-32.25Q509.8-33.8 510.75-34.93 511.7-36.05 513.45-36.05L513.45-36.05ZM520.55-20.15Q520.55-21.15 520.48-22.13 520.4-23.1 520.25-23.65L520.25-23.65 525-24.85Q525.55-23.75 525.75-22.38 525.95-21 525.95-19.8L525.95-19.8Q525.95-18.05 525.48-16.45 525-14.85 524.45-13.28 523.9-11.7 523.42-10.15 522.95-8.6 522.95-6.95L522.95-6.95Q522.95-5.75 523.52-4.93 524.1-4.1 525.65-4.1L525.65-4.1Q527-4.1 528.3-5.28 529.6-6.45 530.73-8.28 531.85-10.1 532.67-12.3 533.5-14.5 533.9-16.55L533.9-16.55 535.45-24.5 541.05-24.5 538.4-11.9Q538.1-10.45 537.98-9.35 537.85-8.25 537.85-7.25L537.85-7.25Q537.85-4.8 538.5-3.45 539.15-2.1 539.7-1.3L539.7-1.3 535.15 0.5Q534.4-0.35 533.92-1.6 533.45-2.85 533.45-4.45L533.45-4.45Q533.45-5.15 533.55-6.15 533.65-7.15 533.8-8.45L533.8-8.45 532.95-6.45Q531.45-3 529.02-1.3 526.6 0.4 523.6 0.4L523.6 0.4Q520.3 0.4 518.77-1.25 517.25-2.9 517.25-5.7L517.25-5.7Q517.25-7.65 517.77-9.5 518.3-11.35 518.9-13.13 519.5-14.9 520.02-16.65 520.55-18.4 520.55-20.15L520.55-20.15ZM555.65-25.1L555.65-25.1Q557.2-25.1 558.35-24.73 559.5-24.35 560.3-23.7 561.1-23.05 561.57-22.18 562.05-21.3 562.25-20.35L562.25-20.35 558.1-18.7Q557.9-19.15 557.75-19.63 557.6-20.1 557.3-20.48 557-20.85 556.52-21.08 556.05-21.3 555.25-21.3L555.25-21.3Q553.55-21.3 552.82-20.35 552.1-19.4 552.1-18.4L552.1-18.4Q552.1-17.7 552.38-17.15 552.65-16.6 553.05-16.15 553.45-15.7 553.92-15.35 554.4-15 554.8-14.8L554.8-14.8 556.25-14Q557.05-13.55 557.82-13.03 558.6-12.5 559.15-11.75 559.7-11 560.05-9.93 560.4-8.85 560.4-7.3L560.4-7.3Q560.4-5.7 559.77-4.28 559.15-2.85 557.95-1.78 556.75-0.7 554.95-0.08 553.15 0.55 550.75 0.55L550.75 0.55Q549.15 0.55 547.67 0.18 546.2-0.2 545.05-0.65L545.05-0.65Q543.75-1.2 542.55-1.85L542.55-1.85 544.75-5.8Q545.8-5.15 546.9-4.65L546.9-4.65Q547.8-4.2 548.88-3.85 549.95-3.5 550.9-3.5L550.9-3.5Q552.8-3.5 553.72-4.35 554.65-5.2 554.65-6.35L554.65-6.35Q554.65-8.05 553.72-8.93 552.8-9.8 551.6-10.45L551.6-10.45 550.35-11.1Q549.75-11.4 549.05-11.85 548.35-12.3 547.72-13.03 547.1-13.75 546.7-14.85 546.3-15.95 546.3-17.55L546.3-17.55Q546.3-19.15 546.9-20.53 547.5-21.9 548.67-22.93 549.85-23.95 551.6-24.53 553.35-25.1 555.65-25.1ZM565.05-20.45L565.05-24.5 570.05-24.5 572.25-30.75 577-31.8 575.55-24.5 581.15-24.5 580.45-20.45 574.75-20.45 571.95-5.7Q571.9-5.45 571.88-5.28 571.85-5.1 571.85-4.95L571.85-4.95Q571.85-4.25 572.25-3.98 572.65-3.7 573.75-3.7L573.75-3.7Q574.45-3.7 575.17-3.83 575.9-3.95 576.55-4.1L576.55-4.1Q577.3-4.3 578-4.55L578-4.55 578-0.8Q577.15-0.45 576.15-0.2L576.15-0.2Q575.3 0.05 574.13 0.23 572.95 0.4 571.65 0.4L571.65 0.4Q568.65 0.4 567.38-0.68 566.1-1.75 566.1-3.8L566.1-3.8Q566.1-4.45 566.25-5.2L566.25-5.2 569.3-20.45 565.05-20.45ZM601.7-3.7Q602.95-3.7 604.2-5.1 605.45-6.5 606.5-8.53 607.55-10.55 608.32-12.88 609.1-15.2 609.5-17.1L609.5-17.1 610.2-20.55Q609.6-20.85 608.82-20.95 608.05-21.05 607.35-21.05L607.35-21.05Q605.1-21.05 603.52-19.78 601.95-18.5 600.97-16.53 600-14.55 599.57-12.18 599.15-9.8 599.15-7.65L599.15-7.65Q599.15-5.45 599.77-4.58 600.4-3.7 601.7-3.7L601.7-3.7ZM599.85 0.4Q598.05 0.4 596.8-0.3 595.55-1 594.75-2.18 593.95-3.35 593.57-4.83 593.2-6.3 593.2-7.85L593.2-7.85Q593.2-11.4 594.12-14.5 595.05-17.6 596.85-19.93 598.65-22.25 601.25-23.58 603.85-24.9 607.25-24.9L607.25-24.9Q608.1-24.9 609.65-24.73 611.2-24.55 613.2-23.7L613.2-23.7 616.35-23.5 614.1-11.85Q613.6-9.2 613.6-7.2L613.6-7.2Q613.6-4.75 614.22-3.43 614.85-2.1 615.4-1.3L615.4-1.3 610.9 0.5Q610.15-0.35 609.67-1.6 609.2-2.85 609.2-4.45L609.2-4.45Q609.2-5.1 609.3-6.13 609.4-7.15 609.55-8.45L609.55-8.45 608.7-6.45Q607.85-4.5 606.85-3.18 605.85-1.85 604.72-1.05 603.6-0.25 602.37 0.08 601.15 0.4 599.85 0.4L599.85 0.4ZM645.8-4.85L647-1.25Q645.8-0.75 644.5-0.35L644.5-0.35Q643.35 0 641.92 0.28 640.5 0.55 638.95 0.55L638.95 0.55Q636.6 0.55 635-0.15 633.4-0.85 632.42-2.02 631.45-3.2 631.02-4.7 630.6-6.2 630.6-7.8L630.6-7.8Q630.6-11.3 631.52-14.45 632.45-17.6 634.22-19.98 636-22.35 638.6-23.73 641.2-25.1 644.55-25.1L644.55-25.1Q645.95-25.1 646.97-24.68 648-24.25 648.67-23.58 649.35-22.9 649.75-22.05 650.15-21.2 650.4-20.3L650.4-20.3 646.25-18.5Q646.05-18.95 645.85-19.43 645.65-19.9 645.35-20.25 645.05-20.6 644.6-20.83 644.15-21.05 643.4-21.05L643.4-21.05Q641.75-21.05 640.47-19.73 639.2-18.4 638.32-16.43 637.45-14.45 637-12.1 636.55-9.75 636.55-7.65L636.55-7.65Q636.55-5.3 637.5-4.4 638.45-3.5 640.1-3.5L640.1-3.5Q640.75-3.5 641.72-3.7 642.7-3.9 643.62-4.17 644.55-4.45 645.2-4.65L645.2-4.65 645.8-4.85ZM660.85-4.25L660.85-0.65Q660.2-0.4 659.4-0.2L659.4-0.2Q658.7 0 657.72 0.13 656.75 0.25 655.6 0.25L655.6 0.25Q653.25 0.25 652.1-0.9 650.95-2.05 650.95-3.95L650.95-3.95Q650.95-4.65 651.1-5.35L651.1-5.35 656.95-35.25 662.6-36.25 656.8-5.9Q656.75-5.65 656.72-5.48 656.7-5.3 656.7-5.1L656.7-5.1Q656.7-3.85 658.05-3.85L658.05-3.85Q659.1-3.85 659.92-4.03 660.75-4.2 660.85-4.25L660.85-4.25ZM673.4-36.05Q675-36.05 675.75-35.18 676.5-34.3 676.5-32.8L676.5-32.8Q676.5-31.35 675.5-30.23 674.5-29.1 672.8-29.1L672.8-29.1Q671.2-29.1 670.45-30 669.7-30.9 669.7-32.25L669.7-32.25Q669.7-33.8 670.67-34.93 671.65-36.05 673.4-36.05L673.4-36.05ZM669.75 0.25Q667.5 0.25 666.3-0.9 665.1-2.05 665.1-3.95L665.1-3.95Q665.1-4.65 665.25-5.4L665.25-5.4 669.05-24.5 674.55-24.5 670.95-5.9Q670.9-5.65 670.87-5.48 670.85-5.3 670.85-5.1L670.85-5.1Q670.85-3.85 671.7-3.85L671.7-3.85Q672.55-3.85 673.35-4.03 674.15-4.2 674.25-4.25L674.25-4.25 674.25-0.65Q673.7-0.4 673-0.2L673-0.2Q672.4 0 671.57 0.13 670.75 0.25 669.75 0.25L669.75 0.25ZM693.7-4.85L694.9-1.25Q693.7-0.75 692.4-0.35L692.4-0.35Q691.25 0 689.82 0.28 688.4 0.55 686.85 0.55L686.85 0.55Q684.5 0.55 682.9-0.15 681.3-0.85 680.32-2.02 679.35-3.2 678.92-4.7 678.5-6.2 678.5-7.8L678.5-7.8Q678.5-11.3 679.42-14.45 680.35-17.6 682.12-19.98 683.9-22.35 686.5-23.73 689.1-25.1 692.45-25.1L692.45-25.1Q693.85-25.1 694.87-24.68 695.9-24.25 696.57-23.58 697.25-22.9 697.65-22.05 698.05-21.2 698.3-20.3L698.3-20.3 694.15-18.5Q693.95-18.95 693.75-19.43 693.55-19.9 693.25-20.25 692.95-20.6 692.5-20.83 692.05-21.05 691.3-21.05L691.3-21.05Q689.65-21.05 688.37-19.73 687.1-18.4 686.22-16.43 685.35-14.45 684.9-12.1 684.45-9.75 684.45-7.65L684.45-7.65Q684.45-5.3 685.4-4.4 686.35-3.5 688-3.5L688-3.5Q688.65-3.5 689.62-3.7 690.6-3.9 691.52-4.17 692.45-4.45 693.1-4.65L693.1-4.65 693.7-4.85ZM705.7-7.8L704.2 0 698.6 0 705.5-35.25 711.15-36.25 709.6-27.85Q709.3-26.25 708.57-23.95 707.85-21.65 707.3-19.6L707.3-19.6Q709.25-22.75 711.4-23.83 713.55-24.9 715.65-24.9L715.65-24.9Q718.55-24.9 720.45-23.5 722.35-22.1 722.35-19.15L722.35-19.15Q722.35-16.9 721.22-15.28 720.1-13.65 718.75-12.65L718.75-12.65Q717.15-11.45 715.2-10.7L715.2-10.7Q715.85-8.65 716.62-6.93 717.4-5.2 718.37-3.6 719.35-2 720.5-0.48 721.65 1.05 723.05 2.65L723.05 2.65 718.6 5.15Q714.7 1.55 712.42-2.88 710.15-7.3 708.95-12L708.95-12 709-12.5Q709.4-12.6 710.62-13 711.85-13.4 713.15-14.1 714.45-14.8 715.47-15.83 716.5-16.85 716.5-18.2L716.5-18.2Q716.5-19.5 715.95-20.18 715.4-20.85 714-20.85L714-20.85Q712.25-20.85 710.87-19.48 709.5-18.1 708.45-16.07 707.4-14.05 706.72-11.8 706.05-9.55 705.7-7.8L705.7-7.8ZM744.85-3.7Q746.1-3.7 747.35-5.1 748.6-6.5 749.65-8.53 750.7-10.55 751.47-12.88 752.25-15.2 752.65-17.1L752.65-17.1 753.35-20.55Q752.75-20.85 751.97-20.95 751.2-21.05 750.5-21.05L750.5-21.05Q748.25-21.05 746.67-19.78 745.1-18.5 744.12-16.53 743.15-14.55 742.72-12.18 742.3-9.8 742.3-7.65L742.3-7.65Q742.3-5.45 742.92-4.58 743.55-3.7 744.85-3.7L744.85-3.7ZM743 0.4Q741.2 0.4 739.95-0.3 738.7-1 737.9-2.18 737.1-3.35 736.72-4.83 736.35-6.3 736.35-7.85L736.35-7.85Q736.35-11.4 737.27-14.5 738.2-17.6 740-19.93 741.8-22.25 744.4-23.58 747-24.9 750.4-24.9L750.4-24.9Q751.25-24.9 752.8-24.73 754.35-24.55 756.35-23.7L756.35-23.7 759.5-23.5 757.25-11.85Q756.75-9.2 756.75-7.2L756.75-7.2Q756.75-4.75 757.37-3.43 758-2.1 758.55-1.3L758.55-1.3 754.05 0.5Q753.3-0.35 752.82-1.6 752.35-2.85 752.35-4.45L752.35-4.45Q752.35-5.1 752.45-6.13 752.55-7.15 752.7-8.45L752.7-8.45 751.85-6.45Q751-4.5 750-3.18 749-1.85 747.87-1.05 746.75-0.25 745.52 0.08 744.3 0.4 743 0.4L743 0.4ZM792.5-23.65L797.3-24.85Q797.8-23.75 798-22.38 798.2-21 798.2-19.8L798.2-19.8Q798.2-17.4 797.7-14.93 797.2-12.45 796.3-10.18 795.4-7.9 794.07-5.95 792.75-4 791.1-2.6L791.1-2.6Q789.2-1 787.2-0.3 785.2 0.4 782.4 0.4L782.4 0.4Q780.4 0.4 779.12-0.43 777.85-1.25 777.2-2.45L777.2-2.45Q775.8-1.3 774.15-0.45 772.5 0.4 770.1 0.4L770.1 0.4Q766.95 0.4 765.22-0.95 763.5-2.3 763.5-5.3L763.5-5.3Q763.5-5.65 763.55-6.23 763.6-6.8 763.67-7.4 763.75-8 763.82-8.55 763.9-9.1 763.95-9.45L763.95-9.45 766.85-24.5 772.3-24.5 769.45-9.6Q769.4-9.35 769.35-8.93 769.3-8.5 769.25-8.05 769.2-7.6 769.15-7.2 769.1-6.8 769.1-6.6L769.1-6.6Q769.1-5.2 769.8-4.35 770.5-3.5 771.85-3.5L771.85-3.5Q773.55-3.5 774.95-5.15 776.35-6.8 777.35-9.28 778.35-11.75 778.87-14.68 779.4-17.6 779.4-20.15L779.4-20.15Q779.4-20.8 779.32-21.95 779.25-23.1 779.1-23.65L779.1-23.65 783.9-24.85Q784.45-23.75 784.65-22.38 784.85-21 784.85-19.8L784.85-19.8Q784.85-16.25 783.87-12.83 782.9-9.4 781.1-6.6L781.1-6.6Q781.05-5.2 781.77-4.35 782.5-3.5 783.8-3.5L783.8-3.5Q785.5-3.5 787.12-5.15 788.75-6.8 790.02-9.28 791.3-11.75 792.05-14.68 792.8-17.6 792.8-20.15L792.8-20.15Q792.8-20.8 792.72-21.95 792.65-23.1 792.5-23.65L792.5-23.65ZM809.5-3.7Q810.75-3.7 812-5.1 813.25-6.5 814.3-8.53 815.35-10.55 816.12-12.88 816.9-15.2 817.3-17.1L817.3-17.1 818-20.55Q817.4-20.85 816.62-20.95 815.85-21.05 815.15-21.05L815.15-21.05Q812.9-21.05 811.32-19.78 809.75-18.5 808.77-16.53 807.8-14.55 807.37-12.18 806.95-9.8 806.95-7.65L806.95-7.65Q806.95-5.45 807.57-4.58 808.2-3.7 809.5-3.7L809.5-3.7ZM807.65 0.4Q805.85 0.4 804.6-0.3 803.35-1 802.55-2.18 801.75-3.35 801.37-4.83 801-6.3 801-7.85L801-7.85Q801-11.4 801.92-14.5 802.85-17.6 804.65-19.93 806.45-22.25 809.05-23.58 811.65-24.9 815.05-24.9L815.05-24.9Q815.9-24.9 817.45-24.73 819-24.55 821-23.7L821-23.7 824.15-23.5 821.9-11.85Q821.4-9.2 821.4-7.2L821.4-7.2Q821.4-4.75 822.02-3.43 822.65-2.1 823.2-1.3L823.2-1.3 818.7 0.5Q817.95-0.35 817.47-1.6 817-2.85 817-4.45L817-4.45Q817-5.1 817.1-6.13 817.2-7.15 817.35-8.45L817.35-8.45 816.5-6.45Q815.65-4.5 814.65-3.18 813.65-1.85 812.52-1.05 811.4-0.25 810.17 0.08 808.95 0.4 807.65 0.4L807.65 0.4ZM851.45-24.5Q851.45-24.6 851.22-23.6 851-22.6 850.62-20.95 850.25-19.3 849.82-17.3 849.4-15.3 849.05-13.35 848.7-11.4 848.45-9.78 848.2-8.15 848.2-7.3L848.2-7.3Q848.2-6.05 848.32-4.98 848.45-3.9 848.6-2.88 848.75-1.85 848.87-0.83 849 0.2 849 1.35L849 1.35Q849 4.1 848.25 5.98 847.5 7.85 846.12 8.97 844.75 10.1 842.77 10.6 840.8 11.1 838.4 11.1L838.4 11.1Q836.95 11.1 835.5 10.78 834.05 10.45 832.7 10 831.35 9.55 830.17 9.03 829 8.5 828.15 8.1L828.15 8.1 830.1 3.9Q831.05 4.3 832.15 4.78 833.25 5.25 834.4 5.65 835.55 6.05 836.75 6.33 837.95 6.6 839.1 6.6L839.1 6.6Q841.45 6.6 842.75 5.1 844.05 3.6 844.05 1.45L844.05 1.45Q844.05 1 844.02 0.48 844-0.05 843.95-0.73 843.9-1.4 843.87-2.3 843.85-3.2 843.85-4.5L843.85-4.5Q843.85-5.4 844-6.55 844.15-7.7 844.25-8.55L844.25-8.55 843.3-6.45Q841.85-3 839.42-1.3 837 0.4 834 0.4L834 0.4Q830.7 0.4 829.17-1.25 827.65-2.9 827.65-5.7L827.65-5.7Q827.65-7.65 828.15-9.5 828.65-11.35 829.27-13.13 829.9-14.9 830.4-16.65 830.9-18.4 830.9-20.15L830.9-20.15Q830.9-21.15 830.82-22.13 830.75-23.1 830.65-23.65L830.65-23.65 835.4-24.85Q835.95-23.75 836.15-22.38 836.35-21 836.35-19.8L836.35-19.8Q836.35-18.05 835.87-16.45 835.4-14.85 834.85-13.28 834.3-11.7 833.82-10.15 833.35-8.6 833.35-6.95L833.35-6.95Q833.35-5.75 833.92-4.93 834.5-4.1 836.05-4.1L836.05-4.1Q837.4-4.1 838.7-5.28 840-6.45 841.12-8.28 842.25-10.1 843.07-12.3 843.9-14.5 844.3-16.55L844.3-16.55 845.85-24.5 851.45-24.5Z" opacity="1" transform="matrix(1,0,0,1,0,0)" fill="#ebe3d6" class="slogan-text-1" data-fill-palette-color="quaternary" id="text-1"></path></svg></g></svg></g></svg></g></svg></g><g transform="matrix(1,0,0,1,48.34476342348966,0)"><svg viewBox="0 0 127.31047315302065 127.31047315302065" height="127.31047315302065" width="127.31047315302065"><g><svg></svg></g><g id="icon-0"><svg viewBox="0 0 127.31047315302065 127.31047315302065" height="127.31047315302065" width="127.31047315302065"><g><path d="M0 63.655c0-35.156 28.499-63.655 63.655-63.655 35.156 0 63.655 28.499 63.655 63.655 0 35.156-28.499 63.655-63.655 63.655-35.156 0-63.655-28.499-63.655-63.655zM63.655 123.091c32.825 0 59.435-26.61 59.436-59.436 0-32.825-26.61-59.435-59.436-59.435-32.825 0-59.435 26.61-59.435 59.435 0 32.825 26.61 59.435 59.435 59.436z" data-fill-palette-color="accent" fill="#f39361" stroke="transparent"></path><ellipse rx="63.01868421074522" ry="63.01868421074522" cx="63.655236576510326" cy="63.655236576510326" fill="#f39361" stroke="transparent" stroke-width="0" fill-opacity="1" data-fill-palette-color="accent"></ellipse></g><g transform="matrix(1,0,0,1,28.13700408403927,28.758217970332588)"><svg viewBox="0 0 71.03646498494211 69.79403721235548" height="69.79403721235548" width="71.03646498494211"><g><svg xmlns="http://www.w3.org/2000/svg" xmlns:xlink="http://www.w3.org/1999/xlink" version="1.1" x="0" y="0" viewBox="0 0.875 100 98.251" enable-background="new 0 0 100 100" xml:space="preserve" height="69.79403721235548" width="71.03646498494211" class="icon-dxe-0" data-fill-palette-color="quaternary" id="dxe-0"><path fill-rule="evenodd" clip-rule="evenodd" d="M100 49.666C100 63.323 95.093 74.971 85.28 84.612 75.466 94.288 63.716 99.126 50.026 99.126S24.6 94.373 14.822 84.87C4.941 75.296 0 63.682 0 50.026 0 36.371 4.941 24.739 14.822 15.131 24.601 5.627 36.336 0.877 50.026 0.875 63.715 0.875 75.432 5.559 85.177 14.925 95.059 24.431 100 36.011 100 49.666M95.119 49.388C95.119 37.265 90.641 26.874 81.688 18.214 72.8 9.652 62.278 5.373 50.122 5.371L45.221 15.419 50.564 16.497 54.73 12.331 62.083 12.821 63.554 16.742 59.143 21.153V23.8L61.888 24.339 63.162 22.28 68.015 19.241 67.868 21.3 69.681 24.437 67.525 26.691 68.897 28.015 65.662 28.211 66.986 30.858 59.976 34.191 61.054 38.162H58.848L57.869 34.241 52.723 34.143 51.791 35.663 49.684 34.683 46.252 38.114 48.997 41.398 48.899 45.025 51.791 47.182 68.652 49.094 73.995 52.868 73.357 62.23 61.739 73.846C60.987 74.599 60.252 76.69 59.533 80.121 58.846 83.355 58.602 85.659 58.799 87.031L57.034 89.041C55.661 86.329 53.88 82.162 51.69 76.542 51.167 74.615 50.711 72.164 50.318 69.189 50.024 66.739 49.73 64.273 49.436 61.789L42.083 55.318 48.603 47.623 45.907 43.75C41.756 42.901 39.06 42.149 37.819 41.496 36.577 40.809 34.437 38.932 31.398 35.859L33.947 40.809 32.231 41.544 28.261 34.093 29.045 27.133 27.819 22.231 23.996 18.506 21.202 17.82 18.751 19.535 16.056 20.222C8.638 28.786 4.93 38.621 4.93 49.73 4.93 62.148 9.373 72.687 18.263 81.345 27.052 89.907 37.671 94.185 50.122 94.187 62.572 94.187 73.175 89.825 81.934 81.099 90.723 72.376 95.117 61.805 95.119 49.388" fill="#ebe3d6" data-fill-palette-color="quaternary"></path></svg></g></svg></g></svg></g></svg></g><g></g></svg></g></svg></g></svg></g><defs></defs></svg><rect width="320" height="360" fill="none" stroke="none" visibility="hidden"></rect></g></svg></g></svg>